<svg width="25" height="34" viewBox="0 0 25 34" fill="none" xmlns="http://www.w3.org/2000/svg">
<path opacity="0.8" fill-rule="evenodd" clip-rule="evenodd" d="M14.3456 0.178165C14.8954 0.418598 15.2625 1.05654 15.2625 1.77172V11.924H23.5501C24.0838 11.924 24.5697 12.3006 24.7983 12.8914C25.0268 13.4822 24.9571 14.1815 24.6191 14.6875L12.1878 33.2999C11.8181 33.8534 11.2042 34.0624 10.6544 33.822C10.1045 33.5815 9.73745 32.9436 9.73745 32.2284V22.0762H1.44988C0.916175 22.0762 0.430225 21.6995 0.201676 21.1087C-0.0268727 20.5179 0.0428804 19.8187 0.380843 19.3127L12.8122 0.700256C13.1819 0.14674 13.7958 -0.0622681 14.3456 0.178165ZM4.36468 18.6921H11.1187C11.8816 18.6921 12.5 19.4497 12.5 20.3841V27.4883L20.6353 15.308H13.8812C13.1184 15.308 12.5 14.5505 12.5 13.616V6.51181L4.36468 18.6921Z" fill="black"/>
</svg>
