<svg version="1.1" id="Layer_1" xmlns="http://www.w3.org/2000/svg" xmlns:xlink="http://www.w3.org/1999/xlink" x="0px" y="0px"
	 width="100%" viewBox="0 0 677 858" enable-background="new 0 0 677 858" xml:space="preserve">

<defs>
    <linearGradient id="linearGradient" x1="0%" y1="0%" x2="100%" y2="0%">
        <stop offset="0%" stop-color="#ffffff" stop-opacity="0.8"/>
        <stop offset="100%" stop-color="#48b" stop-opacity="0.5"/>
    </linearGradient>
</defs>

<path fill="#000000" opacity="1.000000" stroke="none" 
	d="
M678.000000,355.000000 
	C678.000000,522.917603 678.000000,690.835266 678.000000,859.000000 
	C555.309387,859.000000 432.618561,859.000000 309.154541,858.675659 
	C308.718231,857.987122 309.007446,857.369446 309.398956,857.295776 
	C320.222504,855.261597 327.148041,848.250244 333.172638,839.587097 
	C342.677063,825.919983 352.690613,812.608032 362.392975,799.077087 
	C368.880371,790.029724 375.201874,780.863403 381.786133,771.432312 
	C383.259613,768.431824 383.957123,764.153137 385.958313,763.416626 
	C389.543640,762.097046 390.697998,760.707336 390.124268,757.163086 
	C390.026367,756.558228 391.166718,755.677917 391.841278,755.036682 
	C394.142365,752.849060 396.946106,751.035645 398.749634,748.503601 
	C413.791748,727.385681 428.534698,706.054443 443.602966,684.955505 
	C457.932373,664.891113 472.544891,645.028992 487.353821,624.932495 
	C487.950195,624.203308 488.142609,623.559875 488.513031,623.044312 
	C501.380127,605.136780 514.260559,587.238770 527.146667,569.344849 
	C537.469055,555.010986 547.863098,540.728088 558.100403,526.333740 
	C562.577332,520.038940 566.742615,513.522644 571.369324,506.971741 
	C575.472717,501.596924 579.256287,496.357330 583.291626,491.029236 
	C583.640137,490.634705 583.736877,490.328674 583.973755,489.701843 
	C584.812927,488.673248 585.624084,488.045441 586.194580,487.245941 
	C599.157227,469.079651 612.057373,450.868591 625.046875,432.721466 
	C634.749084,419.166901 644.921143,405.932831 654.212708,392.105011 
	C662.150452,380.292053 673.039001,370.164337 676.242676,355.464661 
	C676.301514,355.194946 677.391296,355.149902 678.000000,355.000000 
z"/>
<path fill="#000000" opacity="1.000000" stroke="none" 
	d="
M1.000000,501.000000 
	C1.000000,334.416321 1.000000,167.832626 1.000000,1.000000 
	C122.023209,1.000000 243.046600,1.000000 364.843384,1.292217 
	C364.855347,2.145984 364.105713,2.724399 363.330597,3.266317 
	C358.826416,6.415201 353.349731,8.764843 350.001770,12.857206 
	C342.128052,22.481539 335.246429,32.919930 328.006226,43.059544 
	C316.071686,59.773479 304.199829,76.532211 292.249481,93.234810 
	C273.697113,119.164871 255.117783,145.075684 236.518829,170.972366 
	C217.735519,197.125763 198.924362,223.259186 180.106949,249.388062 
	C162.888840,273.296265 145.590179,297.146698 128.434891,321.099792 
	C117.984047,335.691833 107.822205,350.490784 97.378456,365.087952 
	C82.782791,385.488312 68.054916,405.794128 53.364960,426.126923 
	C43.697781,439.507538 33.685913,452.652466 24.409294,466.297852 
	C16.734600,477.586945 7.067521,487.666016 2.445767,500.915070 
	C2.384669,501.090179 1.500176,500.978058 1.000000,501.000000 
z"/>
<path fill="#EAEAEB" opacity="1.000000" stroke="none" 
	d="
M1.000000,501.468658 
	C1.500176,500.978058 2.384669,501.090179 2.445767,500.915070 
	C7.067521,487.666016 16.734600,477.586945 24.409294,466.297852 
	C33.685913,452.652466 43.697781,439.507538 53.364960,426.126923 
	C68.054916,405.794128 82.782791,385.488312 97.378456,365.087952 
	C107.822205,350.490784 117.984047,335.691833 128.434891,321.099792 
	C145.590179,297.146698 162.888840,273.296265 180.106949,249.388062 
	C198.924362,223.259186 217.735519,197.125763 236.518829,170.972366 
	C255.117783,145.075684 273.697113,119.164871 292.249481,93.234810 
	C304.199829,76.532211 316.071686,59.773479 328.006226,43.059544 
	C335.246429,32.919930 342.128052,22.481539 350.001770,12.857206 
	C353.349731,8.764843 358.826416,6.415201 363.330597,3.266317 
	C364.105713,2.724399 364.855347,2.145984 365.308380,1.292217 
	C372.354248,1.000000 379.708496,1.000000 387.223114,1.304075 
	C391.691772,4.343654 396.386139,6.625739 400.233734,9.902209 
	C410.551910,18.688690 414.730957,30.676943 414.876190,43.710461 
	C415.250854,77.331749 415.020447,110.960014 414.993317,144.585464 
	C414.976776,165.056320 414.889008,185.527130 414.562836,206.049438 
	C414.472717,206.734634 414.653015,207.368362 414.908569,208.397446 
	C414.933655,209.861191 414.883484,210.929611 414.507385,212.075409 
	C407.795135,220.552780 402.346710,229.414520 400.103241,239.932358 
	C399.843994,241.147629 398.670013,242.139664 398.218567,243.346817 
	C395.941101,249.436737 390.206360,253.706955 389.469727,260.690674 
	C389.149963,263.722198 388.495209,267.868927 386.440369,269.337921 
	C381.491821,272.875580 381.484131,277.924438 380.154755,282.769318 
	C379.392334,285.547882 378.108154,288.255219 376.649323,290.755737 
	C373.667236,295.867126 369.942474,300.592285 367.384888,305.892181 
	C364.362732,312.154724 362.399506,318.919739 359.672485,325.337402 
	C358.536652,328.010498 355.679077,330.187134 355.214233,332.868591 
	C353.404053,343.309937 347.746979,351.706329 341.601807,359.928894 
	C340.498718,353.627441 339.116089,347.510651 339.098022,341.389832 
	C338.930939,284.759979 338.999329,228.129410 338.999298,171.499054 
	C338.999298,169.790161 338.999268,168.081268 338.999268,164.946991 
	C265.115845,267.948669 192.154480,369.664825 118.748444,472.000946 
	C121.107811,472.000946 122.696777,472.000916 124.285744,472.000946 
	C183.747620,472.001984 243.209579,471.967010 302.671173,472.096527 
	C306.114014,472.104004 309.553986,473.447235 313.055481,474.512878 
	C316.147919,478.641937 315.606903,484.801636 312.914551,488.941132 
	C309.434052,494.292389 306.444641,500.004364 303.712189,505.782532 
	C302.447693,508.456482 303.300568,512.992981 301.457642,514.382202 
	C293.704529,520.226257 295.276886,530.675110 289.250610,537.217346 
	C287.541687,539.072632 286.669800,541.698914 285.414032,543.971558 
	C284.763672,545.497314 285.756805,548.407593 284.799591,549.362366 
	C281.828369,552.325745 280.621887,555.632996 279.252655,559.553711 
	C276.370087,567.807739 271.565277,575.371216 268.251526,583.504150 
	C267.032623,586.495728 265.727692,585.118958 264.092773,584.532104 
	C264.018860,575.806824 264.018860,567.544739 264.018860,559.011353 
	C261.676453,559.011353 259.871216,559.011414 258.066010,559.011414 
	C186.145599,559.011108 114.225159,559.039307 42.304905,558.937500 
	C38.127045,558.931580 33.834103,558.306641 29.794960,557.223267 
	C16.406410,553.632324 8.147507,544.496948 3.314386,531.837219 
	C2.901105,530.754761 1.788005,529.939453 0.999998,529.000000 
	C1.000000,519.979126 1.000000,510.958221 1.000000,501.468658 
z"/>
<path fill="#000000" opacity="1.000000" stroke="none" 
	d="
M0.999998,529.468628 
	C1.788005,529.939453 2.901105,530.754761 3.314386,531.837219 
	C8.147507,544.496948 16.406410,553.632324 29.794960,557.223267 
	C33.834103,558.306641 38.127045,558.931580 42.304905,558.937500 
	C114.225159,559.039307 186.145599,559.011108 258.066010,559.011414 
	C259.871216,559.011414 261.676453,559.011353 264.018860,559.011353 
	C264.018860,567.544739 264.018860,575.806824 264.013916,584.995239 
	C264.061493,611.279907 264.113953,636.638367 264.088959,662.459961 
	C264.063202,687.614563 264.114899,712.305908 264.089355,737.460510 
	C264.063629,762.947754 264.115082,787.971741 264.088379,813.452271 
	C262.447662,833.145752 274.019531,852.044128 292.095459,857.111084 
	C292.538605,857.235352 292.704681,858.348267 293.000000,859.000000 
	C195.735153,859.000000 98.470299,859.000000 1.000000,859.000000 
	C1.000000,749.312500 1.000000,639.624939 0.999998,529.468628 
z"/>
<path fill="#000000" opacity="1.000000" stroke="none" 
	d="
M414.833252,205.997955 
	C414.889008,185.527130 414.976776,165.056320 414.993317,144.585464 
	C415.020447,110.960014 415.250854,77.331749 414.876190,43.710461 
	C414.730957,30.676943 410.551910,18.688690 400.233734,9.902209 
	C396.386139,6.625739 391.691772,4.343654 387.691742,1.304075 
	C484.598633,1.000000 581.197266,1.000000 678.000000,1.000000 
	C678.000000,111.354141 678.000000,221.708420 677.676941,332.843140 
	C676.923889,333.146393 676.204834,332.721985 676.106689,332.184265 
	C674.372009,322.678833 669.441040,315.158478 661.677490,309.021790 
	C654.039978,301.284119 644.806824,300.238586 634.533142,301.093109 
	C621.712463,301.068634 609.355103,301.117584 596.534363,301.092773 
	C583.378845,301.068176 570.686768,301.117371 557.531372,301.093750 
	C536.376587,301.069427 515.685120,301.117889 494.530334,301.093689 
	C470.042694,301.069580 446.018341,301.118103 421.545532,301.093384 
	C419.167236,301.020172 417.237396,301.020172 414.998444,301.020172 
	C414.998444,298.745667 415.001495,296.947357 414.997955,295.149048 
	C414.943573,267.432037 414.888336,239.715027 414.833282,211.998016 
	C414.883484,210.929611 414.933655,209.861191 414.985382,208.066345 
	C414.935669,206.892593 414.884460,206.445267 414.833252,205.997955 
z"/>
<path fill="#D5D5D6" opacity="1.000000" stroke="none" 
	d="
M381.597595,771.750305 
	C375.201874,780.863403 368.880371,790.029724 362.392975,799.077087 
	C352.690613,812.608032 342.677063,825.919983 333.172638,839.587097 
	C327.148041,848.250244 320.222504,855.261597 309.398956,857.295776 
	C309.007446,857.369446 308.718231,857.987122 308.690674,858.675659 
	C306.958344,859.000000 304.916656,859.000000 302.411255,858.625427 
	C306.798767,847.247192 311.601532,836.221558 316.554657,825.263916 
	C317.282410,823.653992 319.059021,822.516418 319.779266,820.905090 
	C323.557312,812.452881 327.115997,803.902832 330.836365,795.424316 
	C331.697601,793.461548 333.046753,791.712891 333.908417,789.750305 
	C337.825470,780.828125 341.593079,771.840149 345.538055,762.930542 
	C346.781433,760.122437 348.502655,757.529785 349.843140,754.760071 
	C353.263153,747.693848 356.714752,740.638367 359.920593,733.474304 
	C362.784851,727.073547 365.206360,720.474792 368.062073,714.069885 
	C371.323212,706.755737 374.655365,699.459961 378.321106,692.343872 
	C381.158936,686.835144 385.347412,681.915466 387.520569,676.196289 
	C390.709717,667.803101 391.426575,658.400452 398.881897,651.968201 
	C399.630402,651.322388 399.328186,649.516418 399.628387,648.276733 
	C399.914917,647.093811 400.207092,645.874451 400.749542,644.798523 
	C402.302704,641.717896 404.159576,638.781433 405.581177,635.645142 
	C409.315460,627.406860 412.851685,619.079041 416.531281,610.815552 
	C417.933502,607.666504 419.504791,604.592407 421.010681,601.489746 
	C425.352722,592.543762 429.829681,583.660339 434.002899,574.636414 
	C437.014191,568.125000 439.654816,561.440308 442.329285,554.780151 
	C442.472534,554.423401 441.394806,553.576416 441.022552,552.631348 
	C443.105621,549.529846 445.035278,546.743042 447.000153,543.981323 
	C458.919342,527.228149 470.816925,510.459503 482.778534,493.736664 
	C497.947235,472.530182 513.120483,451.326538 528.395508,430.196747 
	C534.074036,422.341736 540.045776,414.698730 546.197693,407.122192 
	C547.854431,411.889771 546.963379,416.176575 544.386780,420.077484 
	C541.458679,424.510437 536.557983,428.331940 541.201172,434.987030 
	C536.289185,436.264832 533.751404,439.230865 532.558899,443.692017 
	C532.007141,445.756409 530.341248,447.532318 529.137390,449.411407 
	C525.532288,455.038452 520.908447,460.191650 522.773254,467.877777 
	C523.181274,469.559418 522.009644,472.785431 520.614868,473.537689 
	C515.246155,476.433319 514.346619,482.257477 511.456573,486.652863 
	C509.687195,489.343750 510.040070,493.430054 509.405914,497.085327 
	C506.582916,499.471985 503.088928,502.425934 499.589813,505.384216 
	C503.910400,510.378937 502.932800,513.083313 497.578552,516.744446 
	C495.338043,518.276489 493.077209,520.763489 492.342773,523.262268 
	C491.441254,526.329407 492.127716,529.863281 492.127716,533.024780 
	C490.657867,534.127380 488.178436,535.035706 487.521362,536.674622 
	C486.070312,540.293762 486.061432,544.520081 484.456055,548.038757 
	C483.263000,550.653870 484.162750,555.046387 479.439453,555.600037 
	C478.771759,555.678284 478.261475,557.413879 477.746338,558.417297 
	C476.457642,560.927429 475.207977,563.457642 473.771545,566.320862 
	C474.383575,566.804810 475.590454,567.759155 476.841034,568.747986 
	C473.774902,571.599609 473.779053,571.600708 471.860718,578.693726 
	C471.733154,579.165344 471.534485,579.643616 471.261566,580.046082 
	C468.211334,584.543823 465.098511,589.000000 462.109070,593.537537 
	C461.505249,594.454102 461.315002,595.654480 460.988281,596.740295 
	C459.486572,601.730530 458.690338,607.041626 453.433044,610.015198 
	C452.514862,610.534485 452.214508,612.535339 452.034271,613.905273 
	C451.056000,621.340637 447.277832,627.422241 443.068756,633.369263 
	C441.762482,635.214844 440.700043,637.359863 440.063263,639.525696 
	C438.812836,643.778748 441.884399,650.072815 434.832520,650.692383 
	C434.532135,654.003906 435.331055,658.119019 433.819214,659.316345 
	C430.051544,662.300354 428.281006,666.030579 426.257538,670.087341 
	C423.667419,675.280151 419.799469,679.821533 416.982910,684.920227 
	C415.042603,688.432739 413.120941,692.323914 412.696564,696.210205 
	C412.189728,700.851562 410.238281,707.049438 407.407166,710.492188 
	C405.411926,712.918457 404.369476,716.151062 403.026978,719.081116 
	C402.420990,720.403748 402.399963,722.048645 401.628815,723.231323 
	C399.230103,726.909851 396.599487,730.437195 394.673096,733.156189 
	C395.468536,735.807190 395.983917,737.524780 396.499268,739.242310 
	C394.527130,739.695129 392.554962,740.147888 390.417725,740.638611 
	C395.048431,746.760620 393.937592,750.364197 387.052094,752.466553 
	C383.899689,753.429077 381.729248,754.494263 382.753235,758.719116 
	C383.277710,760.882996 381.724030,763.486389 381.445526,765.929504 
	C381.227814,767.839111 381.527710,769.807861 381.597595,771.750305 
z"/>
<path fill="#DADADB" opacity="1.000000" stroke="none" 
	d="
M440.885437,552.957642 
	C441.394806,553.576416 442.472534,554.423401 442.329285,554.780151 
	C439.654816,561.440308 437.014191,568.125000 434.002899,574.636414 
	C429.829681,583.660339 425.352722,592.543762 421.010681,601.489746 
	C419.504791,604.592407 417.933502,607.666504 416.531281,610.815552 
	C412.851685,619.079041 409.315460,627.406860 405.581177,635.645142 
	C404.159576,638.781433 402.302704,641.717896 400.749542,644.798523 
	C400.207092,645.874451 399.914917,647.093811 399.628387,648.276733 
	C399.328186,649.516418 399.630402,651.322388 398.881897,651.968201 
	C391.426575,658.400452 390.709717,667.803101 387.520569,676.196289 
	C385.347412,681.915466 381.158936,686.835144 378.321106,692.343872 
	C374.655365,699.459961 371.323212,706.755737 368.062073,714.069885 
	C365.206360,720.474792 362.784851,727.073547 359.920593,733.474304 
	C356.714752,740.638367 353.263153,747.693848 349.843140,754.760071 
	C348.502655,757.529785 346.781433,760.122437 345.538055,762.930542 
	C341.593079,771.840149 337.825470,780.828125 333.908417,789.750305 
	C333.046753,791.712891 331.697601,793.461548 330.836365,795.424316 
	C327.115997,803.902832 323.557312,812.452881 319.779266,820.905090 
	C319.059021,822.516418 317.282410,823.653992 316.554657,825.263916 
	C311.601532,836.221558 306.798767,847.247192 301.973755,858.625427 
	C299.299988,859.000000 296.599976,859.000000 293.449982,859.000000 
	C292.704681,858.348267 292.538605,857.235352 292.095459,857.111084 
	C274.019531,852.044128 262.447662,833.145752 264.450378,813.443726 
	C266.010254,812.142334 267.754517,811.527954 268.144318,810.431946 
	C270.082642,804.981628 275.615295,801.428528 276.017120,795.161316 
	C276.092651,793.983582 277.401001,792.929688 277.934784,791.727295 
	C279.029999,789.260193 279.980560,786.729187 281.000214,784.228271 
	C283.002838,779.316711 284.095673,773.670837 287.281677,769.709473 
	C290.338989,765.908081 292.382507,762.646484 291.163696,757.747864 
	C292.857727,757.170837 294.337372,756.666870 295.686371,756.207397 
	C295.788910,754.108215 295.340729,752.100769 296.053864,750.673706 
	C298.742859,745.292419 301.807251,740.098572 304.739319,734.839172 
	C304.981018,734.405640 305.621338,733.818359 305.509949,733.618835 
	C302.510132,728.246277 306.656616,727.163940 309.780609,724.182312 
	C312.081177,721.986511 316.638794,718.352173 314.275146,713.105774 
	C313.999023,712.492798 314.725342,711.062805 315.390747,710.450073 
	C319.906250,706.291687 318.329498,698.487976 324.481201,695.321533 
	C324.748108,695.184204 324.679688,694.414307 324.786255,693.943359 
	C325.276703,691.776611 325.487671,689.493774 326.320190,687.466736 
	C329.274078,680.274536 332.365997,673.135803 335.586334,666.058960 
	C336.282593,664.528870 337.731110,663.341003 338.911621,662.383179 
	C339.269958,664.517822 339.549805,666.264893 339.625946,668.216309 
	C339.558014,669.276367 339.693787,670.132202 339.900146,671.386292 
	C339.923828,672.859314 339.876862,673.934021 339.698883,675.106689 
	C339.391968,675.535034 339.479370,675.797241 339.899841,676.325745 
	C339.923126,677.110840 339.876587,677.561462 339.616882,678.247192 
	C339.545746,679.650757 339.687744,680.819275 339.900421,682.422302 
	C339.924072,684.907471 339.877014,686.958130 339.698914,689.106689 
	C339.391846,689.534851 339.479187,689.797119 339.903198,690.335693 
	C339.992096,690.845642 339.983521,691.018555 340.030121,691.174927 
	C340.073761,691.321411 340.175873,691.450439 340.252228,691.587158 
	C341.179230,690.652466 342.253265,689.823242 343.011169,688.767151 
	C353.296387,674.435242 363.498901,660.043884 373.799072,645.722778 
	C388.831177,624.822571 403.916138,603.960449 418.997650,583.095886 
	C426.271057,573.033508 433.588135,563.002686 440.885437,552.957642 
z"/>
<path fill="#CCCCCD" opacity="1.000000" stroke="none" 
	d="
M661.996826,309.166565 
	C669.441040,315.158478 674.372009,322.678833 676.106689,332.184265 
	C676.204834,332.721985 676.923889,333.146393 677.676941,333.311768 
	C678.000000,340.020966 678.000000,347.041901 678.000000,354.531433 
	C677.391296,355.149902 676.301514,355.194946 676.242676,355.464661 
	C673.039001,370.164337 662.150452,380.292053 654.212708,392.105011 
	C644.921143,405.932831 634.749084,419.166901 625.046875,432.721466 
	C612.057373,450.868591 599.157227,469.079651 586.194580,487.245941 
	C585.624084,488.045441 584.812927,488.673248 583.789307,489.842224 
	C583.249512,490.536438 583.107849,490.807861 583.039856,491.117737 
	C579.256287,496.357330 575.472717,501.596924 571.230774,506.646545 
	C570.793579,505.348907 570.436035,504.038605 570.901428,503.168488 
	C572.977661,499.286743 575.901062,495.756042 577.399109,491.686462 
	C581.654541,480.126160 588.310608,469.634735 591.595825,457.586761 
	C593.410034,450.933319 597.393982,444.830963 600.680603,438.628967 
	C605.785156,428.996307 612.526245,419.941071 615.812256,409.750610 
	C617.589355,404.239532 620.378662,400.083954 622.667725,395.286621 
	C625.029541,390.336670 626.448792,384.718964 629.472839,379.820587 
	C631.241394,376.955811 632.717346,373.869171 633.983276,370.743988 
	C636.544556,364.420990 638.581665,357.872406 641.378113,351.661469 
	C644.291321,345.191040 647.981018,339.074921 651.083313,332.683594 
	C654.856445,324.910248 658.370605,317.011230 661.996826,309.166565 
z"/>
<path fill="#D2D2D3" opacity="1.000000" stroke="none" 
	d="
M381.786102,771.432312 
	C381.527710,769.807861 381.227814,767.839111 381.445526,765.929504 
	C381.724030,763.486389 383.277710,760.882996 382.753235,758.719116 
	C381.729248,754.494263 383.899689,753.429077 387.052094,752.466553 
	C393.937592,750.364197 395.048431,746.760620 390.417725,740.638611 
	C392.554962,740.147888 394.527130,739.695129 396.499268,739.242310 
	C395.983917,737.524780 395.468536,735.807190 394.673096,733.156189 
	C396.599487,730.437195 399.230103,726.909851 401.628815,723.231323 
	C402.399963,722.048645 402.420990,720.403748 403.026978,719.081116 
	C404.369476,716.151062 405.411926,712.918457 407.407166,710.492188 
	C410.238281,707.049438 412.189728,700.851562 412.696564,696.210205 
	C413.120941,692.323914 415.042603,688.432739 416.982910,684.920227 
	C419.799469,679.821533 423.667419,675.280151 426.257538,670.087341 
	C428.281006,666.030579 430.051544,662.300354 433.819214,659.316345 
	C435.331055,658.119019 434.532135,654.003906 434.832520,650.692383 
	C441.884399,650.072815 438.812836,643.778748 440.063263,639.525696 
	C440.700043,637.359863 441.762482,635.214844 443.068756,633.369263 
	C447.277832,627.422241 451.056000,621.340637 452.034271,613.905273 
	C452.214508,612.535339 452.514862,610.534485 453.433044,610.015198 
	C458.690338,607.041626 459.486572,601.730530 460.988281,596.740295 
	C461.315002,595.654480 461.505249,594.454102 462.109070,593.537537 
	C465.098511,589.000000 468.211334,584.543823 471.261566,580.046082 
	C471.534485,579.643616 471.733154,579.165344 471.860718,578.693726 
	C473.779053,571.600708 473.774902,571.599609 476.841034,568.747986 
	C475.590454,567.759155 474.383575,566.804810 473.771545,566.320862 
	C475.207977,563.457642 476.457642,560.927429 477.746338,558.417297 
	C478.261475,557.413879 478.771759,555.678284 479.439453,555.600037 
	C484.162750,555.046387 483.263000,550.653870 484.456055,548.038757 
	C486.061432,544.520081 486.070312,540.293762 487.521362,536.674622 
	C488.178436,535.035706 490.657867,534.127380 492.127716,533.024780 
	C492.127716,529.863281 491.441254,526.329407 492.342773,523.262268 
	C493.077209,520.763489 495.338043,518.276489 497.578552,516.744446 
	C502.932800,513.083313 503.910400,510.378937 499.589813,505.384216 
	C503.088928,502.425934 506.582916,499.471985 509.405914,497.085327 
	C510.040070,493.430054 509.687195,489.343750 511.456573,486.652863 
	C514.346619,482.257477 515.246155,476.433319 520.614868,473.537689 
	C522.009644,472.785431 523.181274,469.559418 522.773254,467.877777 
	C520.908447,460.191650 525.532288,455.038452 529.137390,449.411407 
	C530.341248,447.532318 532.007141,445.756409 532.558899,443.692017 
	C533.751404,439.230865 536.289185,436.264832 541.201172,434.987030 
	C536.557983,428.331940 541.458679,424.510437 544.386780,420.077484 
	C546.963379,416.176575 547.854431,411.889771 546.250488,406.793640 
	C546.643860,405.498169 547.298340,404.694427 548.197388,404.165161 
	C553.972412,406.385406 550.884766,398.908875 554.607605,398.732788 
	C554.918884,398.718079 555.168518,397.400421 555.446838,396.688110 
	C554.686768,396.459869 553.926758,396.231628 553.176575,395.660492 
	C555.134583,392.751251 557.082764,390.184906 559.297241,387.267700 
	C557.616333,387.046326 556.807251,386.939758 556.070862,386.525635 
	C561.305847,386.114319 563.068909,382.671539 564.093750,378.329498 
	C564.465881,376.753174 564.952698,374.443054 566.055542,373.943604 
	C569.280823,372.483093 568.570312,369.889923 569.113770,367.368988 
	C570.168457,362.476746 571.267517,357.434082 573.432495,352.980865 
	C576.251587,347.182159 580.138184,341.903961 583.514648,336.370819 
	C583.722351,336.030457 583.591797,335.383575 583.440857,334.939789 
	C581.835449,330.219086 583.670349,327.725311 589.018677,327.447876 
	C585.687622,322.905823 587.665527,320.329163 590.432007,319.066681 
	C591.469971,315.903961 592.108459,313.711884 592.907410,311.579956 
	C594.215942,308.088257 595.628845,304.635651 596.997742,301.166534 
	C609.355103,301.117584 621.712463,301.068634 634.534119,301.501068 
	C632.228333,309.299133 629.151001,316.516754 626.752625,323.953339 
	C621.883789,339.049683 610.031860,350.970978 607.349304,367.047363 
	C607.152344,368.227692 605.912048,369.228973 605.173889,370.325043 
	C604.066772,371.968964 602.699402,373.503601 601.923462,375.293213 
	C598.268372,383.723694 594.906311,392.283020 591.153992,400.668579 
	C589.922668,403.420319 586.662292,405.645264 586.334045,408.354034 
	C584.903442,420.159393 575.969421,428.542114 572.963745,439.816772 
	C570.382874,449.497925 564.251160,458.222473 559.772705,467.410553 
	C555.388794,476.404694 551.069702,485.431000 546.796021,494.478088 
	C542.432495,503.715454 538.110535,512.973267 533.875061,522.269775 
	C532.605530,525.056213 531.886658,528.097839 530.570190,530.857788 
	C526.463074,539.468445 522.115234,547.964355 518.008057,556.575073 
	C515.108582,562.653870 512.491150,568.866638 509.666290,574.981934 
	C507.892365,578.822021 505.111664,582.432617 504.363495,586.441223 
	C503.685974,590.071350 502.881409,593.012390 500.133514,595.529297 
	C498.970215,596.594849 498.357147,598.314697 497.644775,599.809082 
	C495.393860,604.530640 493.091919,609.234314 491.047119,614.045776 
	C489.518707,617.642273 488.357635,621.394897 487.032928,625.077942 
	C472.544891,645.028992 457.932373,664.891113 443.602966,684.955505 
	C428.534698,706.054443 413.791748,727.385681 398.749634,748.503601 
	C396.946106,751.035645 394.142365,752.849060 391.841278,755.036682 
	C391.166718,755.677917 390.026367,756.558228 390.124268,757.163086 
	C390.697998,760.707336 389.543640,762.097046 385.958313,763.416626 
	C383.957123,764.153137 383.259613,768.431824 381.786102,771.432312 
M579.269592,355.475861 
	C579.377136,354.934235 579.484619,354.392609 579.592163,353.851013 
	C579.203308,353.845062 578.814514,353.839142 578.425659,353.833191 
	C578.518066,354.377808 578.610413,354.922424 579.269592,355.475861 
M495.273621,523.482300 
	C495.011932,523.730957 494.747864,523.977356 494.502441,524.241089 
	C494.496124,524.247925 494.694458,524.445129 494.797333,524.553528 
	C495.059082,524.304565 495.320862,524.055603 495.273621,523.482300 
z"/>
<path fill="#CFCFD0" opacity="1.000000" stroke="none" 
	d="
M487.353821,624.932495 
	C488.357635,621.394897 489.518707,617.642273 491.047119,614.045776 
	C493.091919,609.234314 495.393860,604.530640 497.644775,599.809082 
	C498.357147,598.314697 498.970215,596.594849 500.133514,595.529297 
	C502.881409,593.012390 503.685974,590.071350 504.363495,586.441223 
	C505.111664,582.432617 507.892365,578.822021 509.666290,574.981934 
	C512.491150,568.866638 515.108582,562.653870 518.008057,556.575073 
	C522.115234,547.964355 526.463074,539.468445 530.570190,530.857788 
	C531.886658,528.097839 532.605530,525.056213 533.875061,522.269775 
	C538.110535,512.973267 542.432495,503.715454 546.796021,494.478088 
	C551.069702,485.431000 555.388794,476.404694 559.772705,467.410553 
	C564.251160,458.222473 570.382874,449.497925 572.963745,439.816772 
	C575.969421,428.542114 584.903442,420.159393 586.334045,408.354034 
	C586.662292,405.645264 589.922668,403.420319 591.153992,400.668579 
	C594.906311,392.283020 598.268372,383.723694 601.923462,375.293213 
	C602.699402,373.503601 604.066772,371.968964 605.173889,370.325043 
	C605.912048,369.228973 607.152344,368.227692 607.349304,367.047363 
	C610.031860,350.970978 621.883789,339.049683 626.752625,323.953339 
	C629.151001,316.516754 632.228333,309.299133 634.997437,301.574463 
	C644.806824,300.238586 654.039978,301.284119 661.677490,309.021790 
	C658.370605,317.011230 654.856445,324.910248 651.083313,332.683594 
	C647.981018,339.074921 644.291321,345.191040 641.378113,351.661469 
	C638.581665,357.872406 636.544556,364.420990 633.983276,370.743988 
	C632.717346,373.869171 631.241394,376.955811 629.472839,379.820587 
	C626.448792,384.718964 625.029541,390.336670 622.667725,395.286621 
	C620.378662,400.083954 617.589355,404.239532 615.812256,409.750610 
	C612.526245,419.941071 605.785156,428.996307 600.680603,438.628967 
	C597.393982,444.830963 593.410034,450.933319 591.595825,457.586761 
	C588.310608,469.634735 581.654541,480.126160 577.399109,491.686462 
	C575.901062,495.756042 572.977661,499.286743 570.901428,503.168488 
	C570.436035,504.038605 570.793579,505.348907 570.910889,506.781738 
	C566.742615,513.522644 562.577332,520.038940 558.100403,526.333740 
	C547.863098,540.728088 537.469055,555.010986 527.146667,569.344849 
	C514.260559,587.238770 501.380127,605.136780 488.513031,623.044312 
	C488.142609,623.559875 487.950195,624.203308 487.353821,624.932495 
z"/>
<path fill="#CFCFD0" opacity="1.000000" stroke="none" 
	d="
M583.291626,491.029236 
	C583.107849,490.807861 583.249512,490.536438 583.649170,490.163025 
	C583.736877,490.328674 583.640137,490.634705 583.291626,491.029236 
z"/>
<path fill="#000000" opacity="1.000000" stroke="none" 
	d="
M547.952759,403.890686 
	C547.298340,404.694427 546.643860,405.498169 545.936646,406.630463 
	C540.045776,414.698730 534.074036,422.341736 528.395508,430.196747 
	C513.120483,451.326538 497.947235,472.530182 482.778534,493.736664 
	C470.816925,510.459503 458.919342,527.228149 447.000153,543.981323 
	C445.035278,546.743042 443.105621,549.529846 441.022522,552.631348 
	C433.588135,563.002686 426.271057,573.033508 418.997650,583.095886 
	C403.916138,603.960449 388.831177,624.822571 373.799072,645.722778 
	C363.498901,660.043884 353.296387,674.435242 343.011169,688.767151 
	C342.253265,689.823242 341.179230,690.652466 340.252228,691.587158 
	C340.175873,691.450439 340.073761,691.321411 340.030121,691.174927 
	C339.983521,691.018555 339.992096,690.845642 339.975586,690.089966 
	C339.926392,689.336304 339.878204,689.172546 339.829987,689.008728 
	C339.877014,686.958130 339.924072,684.907471 339.980927,682.029724 
	C339.937195,680.139099 339.883636,679.075623 339.830078,678.012146 
	C339.876587,677.561462 339.923126,677.110840 339.972229,676.080078 
	C339.926483,675.336182 339.878174,675.172424 339.829895,675.008728 
	C339.876862,673.934021 339.923828,672.859314 339.980743,671.018555 
	C339.937012,669.505676 339.883331,668.758850 339.829651,668.011963 
	C339.549805,666.264893 339.269958,664.517822 338.986938,662.167786 
	C338.983795,661.564819 339.044006,661.112488 339.341309,660.992798 
	C339.439911,660.212463 339.241180,659.551697 339.020844,658.496277 
	C339.314026,656.378479 339.898315,654.655945 339.901764,652.932251 
	C339.935059,636.287292 339.870697,619.642151 339.908936,602.533936 
	C339.989716,573.420471 340.015839,544.770081 339.951904,516.119995 
	C339.948090,514.411804 339.222778,512.705139 338.907837,510.570312 
	C337.651886,504.883148 337.076477,499.272675 334.830719,494.438080 
	C330.395630,484.890289 323.639954,477.292236 312.995270,474.168823 
	C309.553986,473.447235 306.114014,472.104004 302.671173,472.096527 
	C243.209579,471.967010 183.747620,472.001984 124.285744,472.000946 
	C122.696777,472.000916 121.107811,472.000946 118.748444,472.000946 
	C192.154480,369.664825 265.115845,267.948669 338.999268,164.946991 
	C338.999268,168.081268 338.999298,169.790161 338.999298,171.499054 
	C338.999329,228.129410 338.930939,284.759979 339.098022,341.389832 
	C339.116089,347.510651 340.498718,353.627441 341.621368,360.309692 
	C345.741486,371.584564 352.636902,379.218842 363.033264,384.149506 
	C371.215210,388.029938 379.596619,386.751160 388.457153,386.914062 
	C412.611298,386.940002 436.302368,386.886841 460.456573,386.912781 
	C480.944733,386.939117 500.969696,386.886322 521.457886,386.911743 
	C533.280151,386.937653 544.639160,386.885406 555.998169,386.833191 
	C556.807251,386.939758 557.616333,387.046326 559.297241,387.267700 
	C557.082764,390.184906 555.134583,392.751251 553.033813,395.978882 
	C551.238342,399.057037 549.595581,401.473877 547.952759,403.890686 
z"/>
<path fill="#E8E8E9" opacity="1.000000" stroke="none" 
	d="
M387.994019,386.834961 
	C379.596619,386.751160 371.215210,388.029938 363.033264,384.149506 
	C352.636902,379.218842 345.741486,371.584564 341.974792,360.492493 
	C347.746979,351.706329 353.404053,343.309937 355.214233,332.868591 
	C355.679077,330.187134 358.536652,328.010498 359.672485,325.337402 
	C362.399506,318.919739 364.362732,312.154724 367.384888,305.892181 
	C369.942474,300.592285 373.667236,295.867126 376.649323,290.755737 
	C378.108154,288.255219 379.392334,285.547882 380.154755,282.769318 
	C381.484131,277.924438 381.491821,272.875580 386.440369,269.337921 
	C388.495209,267.868927 389.149963,263.722198 389.469727,260.690674 
	C390.206360,253.706955 395.941101,249.436737 398.218567,243.346817 
	C398.670013,242.139664 399.843994,241.147629 400.103241,239.932358 
	C402.346710,229.414520 407.795135,220.552780 414.507385,212.075409 
	C414.888336,239.715027 414.943573,267.432037 414.997955,295.149048 
	C415.001495,296.947357 414.998444,298.745667 414.998444,301.020172 
	C417.237396,301.020172 419.167236,301.020172 421.496460,301.437988 
	C409.072357,328.795593 396.248871,355.735413 383.686249,382.127106 
	C385.625977,384.246979 386.809998,385.540985 387.994019,386.834961 
z"/>
<path fill="#E5E5E6" opacity="1.000000" stroke="none" 
	d="
M313.055481,474.512878 
	C323.639954,477.292236 330.395630,484.890289 334.830719,494.438080 
	C337.076477,499.272675 337.651886,504.883148 338.548218,510.579651 
	C336.068298,513.300415 333.878540,515.475281 332.032562,517.910645 
	C330.974060,519.307007 330.505798,521.142212 329.716156,522.752563 
	C327.210236,527.862976 324.552673,532.903320 322.190491,538.078857 
	C319.668243,543.604919 317.441498,549.265259 315.012268,554.834961 
	C314.703522,555.542786 313.919556,556.031799 313.409668,556.665588 
	C311.958344,558.469482 309.974701,560.088074 309.208954,562.153503 
	C307.180542,567.624695 305.998383,573.415955 303.877563,578.844666 
	C302.116638,583.352173 299.593750,587.577332 297.237030,591.832642 
	C294.606598,596.582092 290.655853,600.929016 289.329468,605.988403 
	C287.686890,612.253723 287.325409,618.705627 281.720917,623.111572 
	C281.287415,623.452393 281.256592,624.306763 281.041016,624.923279 
	C279.218323,630.136414 277.545258,635.408142 275.535492,640.548157 
	C273.108368,646.755615 270.508484,652.903503 267.716614,658.954102 
	C267.123077,660.240479 265.379944,660.996460 264.166443,661.996826 
	C264.113953,636.638367 264.061493,611.279907 264.087830,585.458374 
	C265.727692,585.118958 267.032623,586.495728 268.251526,583.504150 
	C271.565277,575.371216 276.370087,567.807739 279.252655,559.553711 
	C280.621887,555.632996 281.828369,552.325745 284.799591,549.362366 
	C285.756805,548.407593 284.763672,545.497314 285.414032,543.971558 
	C286.669800,541.698914 287.541687,539.072632 289.250610,537.217346 
	C295.276886,530.675110 293.704529,520.226257 301.457642,514.382202 
	C303.300568,512.992981 302.447693,508.456482 303.712189,505.782532 
	C306.444641,500.004364 309.434052,494.292389 312.914551,488.941132 
	C315.606903,484.801636 316.147919,478.641937 313.055481,474.512878 
z"/>
<path fill="#E8E8E9" opacity="1.000000" stroke="none" 
	d="
M414.562836,206.049438 
	C414.884460,206.445267 414.935669,206.892593 414.910095,207.671005 
	C414.653015,207.368362 414.472717,206.734634 414.562836,206.049438 
z"/>
<path fill="#E2E2E2" opacity="1.000000" stroke="none" 
	d="
M264.088989,662.459961 
	C265.379944,660.996460 267.123077,660.240479 267.716614,658.954102 
	C270.508484,652.903503 273.108368,646.755615 275.535492,640.548157 
	C277.545258,635.408142 279.218323,630.136414 281.041016,624.923279 
	C281.256592,624.306763 281.287415,623.452393 281.720917,623.111572 
	C287.325409,618.705627 287.686890,612.253723 289.329468,605.988403 
	C290.655853,600.929016 294.606598,596.582092 297.237030,591.832642 
	C299.593750,587.577332 302.116638,583.352173 303.877563,578.844666 
	C305.998383,573.415955 307.180542,567.624695 309.208954,562.153503 
	C309.974701,560.088074 311.958344,558.469482 313.409668,556.665588 
	C313.919556,556.031799 314.703522,555.542786 315.012268,554.834961 
	C317.441498,549.265259 319.668243,543.604919 322.190491,538.078857 
	C324.552673,532.903320 327.210236,527.862976 329.716156,522.752563 
	C330.505798,521.142212 330.974060,519.307007 332.032562,517.910645 
	C333.878540,515.475281 336.068298,513.300415 338.473602,511.007111 
	C339.222778,512.705139 339.948090,514.411804 339.951904,516.119995 
	C340.015839,544.770081 339.989716,573.420471 339.546631,602.421631 
	C338.245514,599.307251 337.381348,595.841919 336.517181,592.376648 
	C336.076447,592.343445 335.635712,592.310242 335.194977,592.277039 
	C333.456268,595.690491 331.816711,599.159180 329.954315,602.503784 
	C327.496796,606.917175 324.577240,611.094055 322.379761,615.626282 
	C319.609406,621.340088 317.825867,627.561768 314.782074,633.106140 
	C310.890381,640.195007 309.233185,648.230591 304.370087,654.969238 
	C301.486877,658.964294 300.034332,664.191284 298.721008,669.074829 
	C296.535767,677.200928 289.353210,683.092529 288.846710,691.897278 
	C288.812744,692.487854 288.193939,693.030640 287.902100,693.622742 
	C282.439240,704.706909 277.139771,715.875854 271.441223,726.837341 
	C269.539246,730.495850 266.620544,733.625793 264.166595,736.997314 
	C264.114899,712.305908 264.063202,687.614563 264.088989,662.459961 
z"/>
<path fill="#DFDFE0" opacity="1.000000" stroke="none" 
	d="
M264.089355,737.460510 
	C266.620544,733.625793 269.539246,730.495850 271.441223,726.837341 
	C277.139771,715.875854 282.439240,704.706909 287.902100,693.622742 
	C288.193939,693.030640 288.812744,692.487854 288.846710,691.897278 
	C289.353210,683.092529 296.535767,677.200928 298.721008,669.074829 
	C300.034332,664.191284 301.486877,658.964294 304.370087,654.969238 
	C309.233185,648.230591 310.890381,640.195007 314.782074,633.106140 
	C317.825867,627.561768 319.609406,621.340088 322.379761,615.626282 
	C324.577240,611.094055 327.496796,606.917175 329.954315,602.503784 
	C331.816711,599.159180 333.456268,595.690491 335.194977,592.277039 
	C335.635712,592.310242 336.076447,592.343445 336.517181,592.376648 
	C337.381348,595.841919 338.245514,599.307251 339.471954,602.884766 
	C339.870697,619.642151 339.935059,636.287292 339.901764,652.932251 
	C339.898315,654.655945 339.314026,656.378479 339.006897,658.866455 
	C339.024414,660.125061 339.034210,660.618774 339.044006,661.112488 
	C339.044006,661.112488 338.983795,661.564819 338.908478,661.780151 
	C337.731110,663.341003 336.282593,664.528870 335.586334,666.058960 
	C332.365997,673.135803 329.274078,680.274536 326.320190,687.466736 
	C325.487671,689.493774 325.276703,691.776611 324.786255,693.943359 
	C324.679688,694.414307 324.748108,695.184204 324.481201,695.321533 
	C318.329498,698.487976 319.906250,706.291687 315.390747,710.450073 
	C314.725342,711.062805 313.999023,712.492798 314.275146,713.105774 
	C316.638794,718.352173 312.081177,721.986511 309.780609,724.182312 
	C306.656616,727.163940 302.510132,728.246277 305.509949,733.618835 
	C305.621338,733.818359 304.981018,734.405640 304.739319,734.839172 
	C301.807251,740.098572 298.742859,745.292419 296.053864,750.673706 
	C295.340729,752.100769 295.788910,754.108215 295.686371,756.207397 
	C294.337372,756.666870 292.857727,757.170837 291.163696,757.747864 
	C292.382507,762.646484 290.338989,765.908081 287.281677,769.709473 
	C284.095673,773.670837 283.002838,779.316711 281.000214,784.228271 
	C279.980560,786.729187 279.029999,789.260193 277.934784,791.727295 
	C277.401001,792.929688 276.092651,793.983582 276.017120,795.161316 
	C275.615295,801.428528 270.082642,804.981628 268.144318,810.431946 
	C267.754517,811.527954 266.010254,812.142334 264.528534,812.987305 
	C264.115082,787.971741 264.063629,762.947754 264.089355,737.460510 
z"/>
<path fill="#E1E1E2" opacity="1.000000" stroke="none" 
	d="
M388.457153,386.914062 
	C386.809998,385.540985 385.625977,384.246979 383.686249,382.127106 
	C396.248871,355.735413 409.072357,328.795593 421.944916,301.511169 
	C446.018341,301.118103 470.042694,301.069580 494.532166,301.505005 
	C494.497345,304.562683 494.534576,307.409576 493.391937,309.656464 
	C490.519165,315.305450 486.762360,320.513306 484.002502,326.209381 
	C479.694611,335.100525 473.540619,343.205170 472.174835,353.438049 
	C471.998108,354.761719 469.941864,355.803497 468.831024,357.042816 
	C467.840149,358.148254 466.576355,359.205475 466.081543,360.526825 
	C463.162476,368.322449 460.432861,376.188995 457.671722,383.941162 
	C458.034576,384.393219 459.014008,385.613434 459.993408,386.833679 
	C436.302368,386.886841 412.611298,386.940002 388.457153,386.914062 
z"/>
<path fill="#DADADB" opacity="1.000000" stroke="none" 
	d="
M460.456604,386.912781 
	C459.014008,385.613434 458.034576,384.393219 457.671722,383.941162 
	C460.432861,376.188995 463.162476,368.322449 466.081543,360.526825 
	C466.576355,359.205475 467.840149,358.148254 468.831024,357.042816 
	C469.941864,355.803497 471.998108,354.761719 472.174835,353.438049 
	C473.540619,343.205170 479.694611,335.100525 484.002502,326.209381 
	C486.762360,320.513306 490.519165,315.305450 493.391937,309.656464 
	C494.534576,307.409576 494.497345,304.562683 494.995422,301.577637 
	C515.685120,301.117889 536.376587,301.069427 557.522644,301.466064 
	C555.798523,307.312897 553.825500,312.809601 551.384827,318.090240 
	C548.825684,323.627441 545.698120,328.899170 543.035889,334.392090 
	C539.472290,341.744720 535.867554,349.094696 532.734436,356.634460 
	C528.591187,366.605255 524.887390,376.758636 520.994690,386.833557 
	C500.969696,386.886322 480.944733,386.939117 460.456604,386.912781 
z"/>
<path fill="#D5D5D6" opacity="1.000000" stroke="none" 
	d="
M521.457886,386.911743 
	C524.887390,376.758636 528.591187,366.605255 532.734436,356.634460 
	C535.867554,349.094696 539.472290,341.744720 543.035889,334.392090 
	C545.698120,328.899170 548.825684,323.627441 551.384827,318.090240 
	C553.825500,312.809601 555.798523,307.312897 557.985901,301.538879 
	C570.686768,301.117371 583.378845,301.068176 596.534363,301.092773 
	C595.628845,304.635651 594.215942,308.088257 592.907410,311.579956 
	C592.108459,313.711884 591.469971,315.903961 590.432007,319.066681 
	C587.665527,320.329163 585.687622,322.905823 589.018677,327.447876 
	C583.670349,327.725311 581.835449,330.219086 583.440857,334.939789 
	C583.591797,335.383575 583.722351,336.030457 583.514648,336.370819 
	C580.138184,341.903961 576.251587,347.182159 573.432495,352.980865 
	C571.267517,357.434082 570.168457,362.476746 569.113770,367.368988 
	C568.570312,369.889923 569.280823,372.483093 566.055542,373.943604 
	C564.952698,374.443054 564.465881,376.753174 564.093750,378.329498 
	C563.068909,382.671539 561.305847,386.114319 556.070862,386.525635 
	C544.639160,386.885406 533.280151,386.937653 521.457886,386.911743 
z"/>
<path fill="#D4D4D8" opacity="1.000000" stroke="none" 
	d="
M339.616913,678.247192 
	C339.883636,679.075623 339.937195,680.139099 339.910248,681.595154 
	C339.687744,680.819275 339.545746,679.650757 339.616913,678.247192 
z"/>
<path fill="#D4D4D8" opacity="1.000000" stroke="none" 
	d="
M339.625916,668.216309 
	C339.883331,668.758850 339.937012,669.505676 339.910095,670.620239 
	C339.693787,670.132202 339.558014,669.276367 339.625916,668.216309 
z"/>
<path fill="#D4D4D8" opacity="1.000000" stroke="none" 
	d="
M339.698883,675.106689 
	C339.878174,675.172424 339.926483,675.336182 339.902435,675.745667 
	C339.479370,675.797241 339.391968,675.535034 339.698883,675.106689 
z"/>
<path fill="#D4D4D8" opacity="1.000000" stroke="none" 
	d="
M339.698914,689.106689 
	C339.878204,689.172546 339.926392,689.336304 339.902191,689.745667 
	C339.479187,689.797119 339.391846,689.534851 339.698914,689.106689 
z"/>
<path fill="#D5D5D6" opacity="1.000000" stroke="none" 
	d="
M548.197388,404.165161 
	C549.595581,401.473877 551.238342,399.057037 553.023926,396.321777 
	C553.926758,396.231628 554.686768,396.459869 555.446838,396.688110 
	C555.168518,397.400421 554.918884,398.718079 554.607605,398.732788 
	C550.884766,398.908875 553.972412,406.385406 548.197388,404.165161 
z"/>
<path fill="#D5D5D6" opacity="1.000000" stroke="none" 
	d="
M578.986206,355.471436 
	C578.610413,354.922424 578.518066,354.377808 578.425659,353.833191 
	C578.814514,353.839142 579.203308,353.845062 579.592163,353.851013 
	C579.484619,354.392609 579.377136,354.934235 578.986206,355.471436 
z"/>
<path fill="#D5D5D6" opacity="1.000000" stroke="none" 
	d="
M495.428131,523.644409 
	C495.320862,524.055603 495.059082,524.304565 494.797363,524.553589 
	C494.694458,524.445129 494.496124,524.247925 494.502441,524.241089 
	C494.747864,523.977356 495.011932,523.730957 495.428131,523.644409 
z"/>
<path fill="#DADADB" opacity="1.000000" stroke="none" 
	d="
M339.341309,660.992798 
	C339.034210,660.618774 339.024414,660.125061 339.028564,659.261169 
	C339.241180,659.551697 339.439911,660.212463 339.341309,660.992798 
z"/>
</svg>