<svg width="27" height="27" viewBox="0 0 27 27" fill="none" xmlns="http://www.w3.org/2000/svg">
<path d="M13.5534 0.166576C6.2734 0.166576 0.340065 6.09991 0.340065 13.3799C0.340065 15.7132 0.953399 17.9799 2.10007 19.9799L0.233398 26.8332L7.2334 24.9932C9.16673 26.0466 11.3401 26.6066 13.5534 26.6066C20.8334 26.6066 26.7667 20.6732 26.7667 13.3932C26.7667 9.85991 25.3934 6.53991 22.9001 4.04658C21.6775 2.81205 20.2214 1.8332 18.6167 1.16706C17.0121 0.500921 15.2908 0.16082 13.5534 0.166576ZM13.5667 2.39324C16.5001 2.39324 19.2467 3.53991 21.3267 5.61991C22.3472 6.6406 23.1564 7.85259 23.7078 9.18647C24.2592 10.5203 24.542 11.9499 24.5401 13.3932C24.5401 19.4466 19.6067 24.3666 13.5534 24.3666C11.5801 24.3666 9.64673 23.8466 7.96673 22.8332L7.56673 22.6066L3.40673 23.6999L4.5134 19.6466L4.24673 19.2199C3.14613 17.4711 2.56362 15.4462 2.56673 13.3799C2.58007 7.32658 7.50006 2.39324 13.5667 2.39324ZM8.8734 7.27324C8.66006 7.27324 8.30006 7.35324 7.9934 7.68658C7.70006 8.01991 6.8334 8.83324 6.8334 10.4466C6.8334 12.0732 8.02006 13.6332 8.16673 13.8599C8.3534 14.0866 10.5134 17.4199 13.8334 18.8332C14.6201 19.1932 15.2334 19.3932 15.7134 19.5399C16.5001 19.7932 17.2201 19.7532 17.7934 19.6732C18.4334 19.5799 19.7401 18.8732 20.0201 18.0999C20.3001 17.3266 20.3001 16.6732 20.2201 16.5266C20.1267 16.3932 19.9134 16.3132 19.5801 16.1666C19.2467 15.9799 17.6201 15.1799 17.3267 15.0732C17.0201 14.9666 16.8334 14.9132 16.5801 15.2332C16.3667 15.5666 15.7267 16.3132 15.5401 16.5266C15.3401 16.7532 15.1534 16.7799 14.8334 16.6199C14.4867 16.4466 13.4201 16.0999 12.1667 14.9799C11.1801 14.0999 10.5267 13.0199 10.3267 12.6866C10.1667 12.3666 10.3134 12.1666 10.4734 12.0199C10.6201 11.8732 10.8334 11.6332 10.9667 11.4332C11.1401 11.2466 11.1934 11.0999 11.3001 10.8866C11.4067 10.6599 11.3534 10.4732 11.2734 10.3132C11.1934 10.1666 10.5267 8.51324 10.2467 7.85991C9.98006 7.21991 9.7134 7.29991 9.50006 7.28658C9.3134 7.28658 9.10006 7.27324 8.8734 7.27324Z" fill="#4BDC27"/>
</svg>
